<?xml version="1.0" standalone="no"?><!DOCTYPE svg PUBLIC "-//W3C//DTD SVG 1.1//EN" "http://www.w3.org/Graphics/SVG/1.1/DTD/svg11.dtd"><svg t="1514537814483" class="icon" style="" viewBox="0 0 1024 1024" version="1.1" xmlns="http://www.w3.org/2000/svg" p-id="2152" xmlns:xlink="http://www.w3.org/1999/xlink" width="32" height="32"><defs><style type="text/css"></style></defs><path d="M0 803.84C0 870.4 56.32 921.6 128 921.6h768c71.68 0 128-51.2 128-117.76V358.4H0v445.44z m716.8-250.88c-15.36-10.24-15.36-25.6-5.12-40.96 10.24-10.24 30.72-15.36 40.96-5.12l128 97.28c5.12 5.12 15.36 10.24 15.36 20.48s-5.12 15.36-10.24 25.6l-128 112.64c-10.24 10.24-30.72 10.24-40.96 0-15.36-10.24-15.36-30.72 0-40.96l102.4-92.16-102.4-76.8z m-296.96 168.96l128-209.92c10.24-15.36 25.6-20.48 40.96-10.24 15.36 5.12 20.48 25.6 15.36 40.96l-128 209.92c-5.12 10.24-15.36 15.36-25.6 15.36-5.12 0-10.24 0-15.36-5.12-15.36-10.24-25.6-25.6-15.36-40.96z m-276.48-117.76l128-97.28c15.36-10.24 30.72-10.24 40.96 5.12 10.24 10.24 10.24 25.6 0 35.84l-5.12 5.12-102.4 76.8 102.4 92.16c10.24 10.24 15.36 25.6 5.12 35.84 0 0 0 5.12-5.12 5.12-10.24 10.24-30.72 10.24-40.96 0l-128-112.64c-5.12-5.12-10.24-15.36-10.24-25.6s5.12-15.36 15.36-20.48zM896 102.4h-768C56.32 102.4 0 153.6 0 220.16V307.2h1024V220.16C1024 153.6 967.68 102.4 896 102.4zM204.8 256H102.4V153.6h102.4v102.4z m204.8 0H307.2V153.6h102.4v102.4z m204.8 0h-102.4V153.6h102.4v102.4z" p-id="2153"></path></svg>