<?xml version="1.0" standalone="no"?><!DOCTYPE svg PUBLIC "-//W3C//DTD SVG 1.1//EN" "http://www.w3.org/Graphics/SVG/1.1/DTD/svg11.dtd"><svg t="1516763324954" class="icon" style="" viewBox="0 0 1024 1024" version="1.1" xmlns="http://www.w3.org/2000/svg" p-id="3519" xmlns:xlink="http://www.w3.org/1999/xlink" width="128" height="128"><defs><style type="text/css"></style></defs><path d="M512 217.7792c258.0992 0 410.752 223.0784 453.504 295.5008C922.88 585.344 770.9696 806.2464 512 806.2464c-291.5072 0-420.9152-220.8-454.8352-291.4304C99.1488 444.9024 255.2832 217.7792 512 217.7792M512 166.5792c-338.3296 0-512 345.3696-512 345.3696s131.072 345.4976 512 345.4976c344.9856 0 512-344.1408 512-344.1408S855.6544 166.5792 512 166.5792L512 166.5792zM512.0256 396.1856c67.0208 0 115.6864 48.6912 115.6864 115.8144 0 67.1744-48.64 115.8656-115.6864 115.8656-67.0464 0-115.7376-48.6912-115.7376-115.8656C396.288 444.8768 444.9792 396.1856 512.0256 396.1856M512.0256 344.9856c-96.896 0-166.9376 73.0624-166.9376 167.0144 0 94.0032 70.016 167.0656 166.9376 167.0656 96.8704 0 166.8864-73.0624 166.8864-167.0656C678.912 418.0224 608.896 344.9856 512.0256 344.9856L512.0256 344.9856z" p-id="3520"></path></svg>