<?xml version="1.0" standalone="no"?><!DOCTYPE svg PUBLIC "-//W3C//DTD SVG 1.1//EN" "http://www.w3.org/Graphics/SVG/1.1/DTD/svg11.dtd"><svg t="1514537527016" class="icon" style="" viewBox="0 0 1024 1024" version="1.1" xmlns="http://www.w3.org/2000/svg" p-id="1527" xmlns:xlink="http://www.w3.org/1999/xlink" width="32" height="32"><defs><style type="text/css"></style></defs><path d="M56.888889 853.366667c0 56.888889 56.888889 113.777778 113.777778 113.777778l298.044444-0.077778L468.711111 555.2 56.888889 555.2 56.888889 853.366667 56.888889 853.366667zM56.888889 224.033333 56.888889 468.666667l411.877778 0L468.766667 56.844444 170.666667 56.922222c-56.888889 0-113.777778 56.888889-113.777778 110.222222L56.888889 224.033333zM555.233333 56.844444 555.233333 468.666667 967.111111 468.666667 967.111111 170.7c0-56.888889-56.888889-113.777778-113.777778-113.777778L555.233333 56.844444zM555.233333 967.066667 853.333333 967.144444c56 0 113.777778-56.888889 113.777778-113.777778L967.111111 555.2 555.233333 555.2 555.233333 967.066667 555.233333 967.066667zM771.977778 642.233333l108.033333 108.033333-64.855556 0 0 130.277778-86.411111 0L728.744444 750.266667 663.888889 750.266667 771.977778 642.233333 771.977778 642.233333z" p-id="1528"></path></svg>