<?xml version="1.0" standalone="no"?><!DOCTYPE svg PUBLIC "-//W3C//DTD SVG 1.1//EN" "http://www.w3.org/Graphics/SVG/1.1/DTD/svg11.dtd"><svg t="1515725982797" class="icon" style="" viewBox="0 0 1024 1024" version="1.1" xmlns="http://www.w3.org/2000/svg" p-id="6134" xmlns:xlink="http://www.w3.org/1999/xlink" width="128" height="128"><defs><style type="text/css"></style></defs><path d="M655.77 404.789l-168.431 168.431-99.215-99.218c-4.199-4.202-10.003-6.802-16.413-6.802-0.016 0-0.033 0-0.049 0-5.961 0-11.92 2.266-16.46 6.802-4.204 4.217-6.803 10.036-6.803 16.462 0 6.426 2.6 12.245 6.804 16.462l115.675 115.672c8.060 8.056 21.049 9.053 30.218 2.32 0.95-0.698 1.858-1.478 2.7-2.317l184.894-184.897c4.211-4.19 6.816-9.989 6.816-16.397 0-0.022 0-0.043 0-0.065 0-6.213-2.422-12.057-6.816-16.455-4.216-4.205-10.034-6.804-16.461-6.804-6.426 0-12.244 2.6-16.461 6.805z" p-id="6135"></path><path d="M842.652 170.56c-131.351 0-252.686-42.567-309.84-108.56h-41.642c-57.154 65.993-178.489 108.56-309.84 108.56-5.005 0-10.141-0.065-15.309-0.191v510.169l0.148 0.419c53.784 207.182 328.836 276.94 345.821 281.043 8.197-1.97 77.453-19.314 151.933-59.976 65.062-35.945 120.031-81.84 164.96-136.323-122.487 110.833-119.715 95.324-127.833 84.501-7.222-9.627-20.64-12.237-30.82-5.822-53.62 34.268-116.483 59.654-183.843 72.28 103.205-26.8 52.145-10.252 26.525-3.042l-0.976 0.271-0.976-0.271c-24.843-6.942-74.57-22.982-128.445-52.375-42.115-22.974-77.544-49.26-105.308-78.126-31.616-32.871-53.318-69.348-64.497-108.419l-0.137-0.994v-457.306l3.426-0.181c121.698-6.335 228.678-45.042 293.512-106.196l2.48-2.338 2.48 2.338c64.834 61.154 171.814 99.862 293.512 106.196l3.426 0.181-0.141 458.3c-7.466 26.105-19.65 51.041-36.332 74.523-6.795 9.567-5.512 22.664 3.127 30.608 10.308 9.487 26.559 7.723 34.699-3.679 19.787-27.724 35.747-59.347 45.053-95.192l0.148-0.578v-510.013c-4.633 0.124-10.088 0.195-15.559 0.195z" p-id="6136"></path></svg>