<?xml version="1.0" standalone="no"?><!DOCTYPE svg PUBLIC "-//W3C//DTD SVG 1.1//EN" "http://www.w3.org/Graphics/SVG/1.1/DTD/svg11.dtd"><svg t="1514537679036" class="icon" style="" viewBox="0 0 1024 1024" version="1.1" xmlns="http://www.w3.org/2000/svg" p-id="1778" xmlns:xlink="http://www.w3.org/1999/xlink" width="32" height="32"><defs><style type="text/css"></style></defs><path d="M336.807 920.892c-85.749-9.859-149.95-17.081-235.7-26.939-0.989-0.14-10.469-1.245-24.499-2.912-27.1-10.713-59.143-26.021-47.101-88.072 25.977-71.83 35.101-100.313 50.938-137.987 47.23-88.905 83.738-103.858 152.891-119.81 85.972-12.742 158.252-9.19 255.126 0.055 16.886 1.927 35.334 10.701 22.526 38.302-11.158 23.672-26.195 43.739-44.504 60.244-17.592 42.26-34.205 129.842-10.551 225.016 9.713 39.007 3.455 53.733-36.535 54.572-20.136 0.422-38.207-0.928-58.344-0.928-6.762 0.005-17.626-1.544-24.244-1.54-0.145 1.544 0.14-1.695 0 0zM497.881 707.151c14.929-3.801 29.567-8.167 44.497-11.262 23.371-4.929 26.472-16.475 12.246-34.356-9.014-11.263-18.442-22.109-29.851-35.485l36.746-49.698c11.968-16.193 23.658-32.384 37.035-50.688 15.631 11.686 29.851 22.665 44.492 33.229 22.672 16.331 38.018 12.385 49.425-13.802 6.057-13.936 9.574-29.006 15.063-46.036 29.012 0 58.711-1.272 88.289 0.982 6.612 0.567 15.063 12.531 18.020 20.837 22.382 61.529 24.921 62.378 77.298 21.543 6.762-5.213 13.798-9.996 22.532-16.187 24.776 33.223 48.576 65.33 76.175 102.22-10.558 8.446-21.26 15.203-29.989 23.932-24.644 24.505-21.543 35.485 11.401 44.074 13.802 3.657 27.74 7.039 42.386 10.701v99.408c-16.331 4.651-32.099 8.167-47.17 13.658-26.472 9.574-29.561 25.487-9.147 44.074 9.147 8.301 19.010 15.908 28.161 23.51-33.373 32.105-65.757 63.361-100.957 97.152-6.897-6.196-17.881-16.331-29.289-26.050-20.976-17.875-39.284-10.979-44.214 16.475-1.123 6.619-1.967 13.381-2.95 19.998-0.844 5.635-1.55 11.407-2.679 19.148h-99.12c-3.1-14.219-5.635-29.289-9.58-43.792-5.63-21.12-18.302-28.861-38.718-17.181-18.309 10.558-36.329 21.682-57.305 34.217-25.204-32.527-50.688-65.473-77.159-99.687 10.558-9.152 20.27-16.898 29.289-25.349 21.26-19.993 18.302-33.229-9.859-43.224-14.358-5.067-29.289-8.584-45.054-13.086-0.017-32.962-0.017-65.346-0.022-99.28zM884.098 755.16c-0.416-72.23-58.573-130.097-130.237-129.396-71.947 0.567-128.974 58.855-128.552 131.23 0.567 72.092 58.433 129.257 130.664 128.974 72.513-0.422 128.546-57.589 128.123-130.808zM244.36 246.448c0 132.435 107.36 239.795 239.795 239.795s239.795-107.36 239.795-239.795c0-132.435-107.36-239.795-239.795-239.795-132.435 0-239.795 107.36-239.795 239.795z" p-id="1779"></path></svg>