<?xml version="1.0" standalone="no"?><!DOCTYPE svg PUBLIC "-//W3C//DTD SVG 1.1//EN" "http://www.w3.org/Graphics/SVG/1.1/DTD/svg11.dtd"><svg t="1545734783411" class="icon" style="" viewBox="0 0 1024 1024" version="1.1" xmlns="http://www.w3.org/2000/svg" p-id="5153" xmlns:xlink="http://www.w3.org/1999/xlink" width="64" height="64"><defs><style type="text/css"></style></defs><path d="M704.527 64.543h-384.84c-35.29 0-64 28.71-64 64V894.876c0 35.29 28.71 64 64 64h384.84c35.29 0 64-28.71 64-64V128.543c0-35.29-28.71-64-64-64zM512 881.983c-29.659 0-53.703-24.044-53.703-53.703s24.044-53.703 53.703-53.703 53.703 24.044 53.703 53.703-24.044 53.703-53.703 53.703z m192.527-186.821h-384.84V128.601a0.53 0.53 0 0 1 0.058-0.058H704.47a0.522 0.522 0 0 1 0.058 0.057v566.562z" p-id="5154"></path></svg>