<?xml version="1.0" standalone="no"?><!DOCTYPE svg PUBLIC "-//W3C//DTD SVG 1.1//EN" "http://www.w3.org/Graphics/SVG/1.1/DTD/svg11.dtd"><svg t="1514537620117" class="icon" style="" viewBox="0 0 1024 1024" version="1.1" xmlns="http://www.w3.org/2000/svg" p-id="1655" xmlns:xlink="http://www.w3.org/1999/xlink" width="32" height="32"><defs><style type="text/css"></style></defs><path d="M918.8 157.94c-19.68-19.5-42.42-29.22-68.16-29.22l-202.2 0c-10.62-28.5-28.02-51.78-52.26-69.72C571.88 41 543.86 32 512.06 32 480.2 32 452.18 40.94 427.94 58.94c-24.24 18-41.7 41.22-52.26 69.72L173.36 128.66c-25.74 0-48.48 9.78-68.16 29.22C85.46 177.44 75.62 199.88 75.62 225.38l0 669.9c0 25.44 9.9 47.94 29.58 67.44C124.88 982.28 147.62 992 173.36 992l677.28 0c25.74 0 48.48-9.78 68.16-29.22 19.74-19.5 29.58-41.94 29.58-67.44L948.38 225.38C948.38 199.94 938.48 177.44 918.8 157.94zM477.86 142.16C486.98 133.22 498.32 128.66 512 128.66s25.02 4.5 34.14 13.5c9.12 9 13.62 20.22 13.62 33.72 0 13.5-4.56 25.14-13.62 34.86C537.02 220.52 525.62 225.38 512 225.38S486.98 220.52 477.86 210.8C468.74 201.08 464.24 189.44 464.24 175.94 464.24 162.44 468.74 151.22 477.86 142.16zM609.74 800.9L268.82 800.9l0-96.72 340.86 0L609.68 800.9zM755.18 607.52L268.82 607.52 268.82 513.14l486.36 0L755.18 607.52zM755.18 416.42L268.82 416.42 268.82 319.76l486.36 0L755.18 416.42z" p-id="1656"></path></svg>