<?xml version="1.0" standalone="no"?><!DOCTYPE svg PUBLIC "-//W3C//DTD SVG 1.1//EN" "http://www.w3.org/Graphics/SVG/1.1/DTD/svg11.dtd"><svg t="1514538500420" class="icon" style="" viewBox="0 0 1024 1024" version="1.1" xmlns="http://www.w3.org/2000/svg" p-id="1941" xmlns:xlink="http://www.w3.org/1999/xlink" width="128" height="128"><defs><style type="text/css"></style></defs><path d="M755.48444445 951.18222222H178.74488889c-63.71555555 0-115.48444445-51.76888889-115.48444444-115.48444444V308.33777778c0-63.71555555 51.76888889-115.48444445 115.48444444-115.48444445H755.48444445c63.71555555 0 115.48444445 51.76888889 115.48444444 115.48444445v527.36c0 63.60177778-51.88266667 115.48444445-115.48444444 115.48444444zM178.74488889 256.56888889c-28.55822222 0-51.76888889 23.21066667-51.76888889 51.76888889v527.36c0 28.55822222 23.21066667 51.76888889 51.76888889 51.76888889H755.48444445c28.55822222 0 51.76888889-23.21066667 51.76888888-51.76888889V308.33777778c0-28.55822222-23.21066667-51.76888889-51.76888888-51.76888889H178.74488889z" p-id="1942"></path><path d="M911.24622222 827.16444445c-7.168 0-14.44977778-2.38933333-20.36622222-7.39555556-13.53955555-11.264-15.36-31.40266667-4.096-44.82844444 7.73688889-9.32977778 12.06044445-21.04888889 12.06044445-32.99555556V214.47111111c0-28.55822222-23.21066667-51.76888889-51.7688889-51.76888889H270.336c-10.35377778 0-20.36622222 3.072-28.89955555 8.87466667-14.56355555 9.89866667-34.36088889 6.144-44.25955556-8.41955556s-6.144-34.36088889 8.41955556-44.25955555c19.22844445-13.08444445 41.52888889-19.91111111 64.73955555-19.91111111h576.73955555c63.71555555 0 115.48444445 51.76888889 115.48444445 115.48444444V741.83111111c0 26.85155555-9.55733333 53.13422222-26.85155555 73.84177778-6.25777778 7.50933333-15.36 11.49155555-24.46222223 11.49155556z" p-id="1943"></path><path d="M164 384h610v54H164zM724.5 360.5h-281c-13.5 0-24.5-11-24.5-24.5s11-24.5 24.5-24.5h281c13.5 0 24.5 11 24.5 24.5s-11 24.5-24.5 24.5z" p-id="1944"></path><path d="M226.5 336m-22.5 0a22.5 22.5 0 1 0 45 0 22.5 22.5 0 1 0-45 0Z" p-id="1945"></path><path d="M290.5 336m-22.5 0a22.5 22.5 0 1 0 45 0 22.5 22.5 0 1 0-45 0Z" p-id="1946"></path><path d="M354.5 336m-22.5 0a22.5 22.5 0 1 0 45 0 22.5 22.5 0 1 0-45 0Z" p-id="1947"></path></svg>
