<?xml version="1.0" standalone="no"?><!DOCTYPE svg PUBLIC "-//W3C//DTD SVG 1.1//EN" "http://www.w3.org/Graphics/SVG/1.1/DTD/svg11.dtd"><svg t="1515725923600" class="icon" style="" viewBox="0 0 1024 1024" version="1.1" xmlns="http://www.w3.org/2000/svg" p-id="5705" xmlns:xlink="http://www.w3.org/1999/xlink" width="128" height="128"><defs><style type="text/css"></style></defs><path d="M849.3568 1023.0272H174.6432c-58.1632 0-105.728-44.4416-105.728-99.6352V500.224c0-55.1936 46.9504-99.584 105.728-99.584h26.0608V301.8752C200.704 130.7136 340.224 0.9216 512 0.9216c171.6224 0 311.2448 129.792 311.2448 300.9536v99.1232h26.112c58.2144 0 105.728 44.544 105.728 99.7376v423.168c0 54.6816-47.5136 99.1232-105.728 99.1232zM467.456 708.7616v110.8992c0 22.8864 20.0192 41.9328 44.544 41.9328 24.4736 0 44.3392-19.0464 44.3392-41.9328v-110.8992c26.6752-14.2848 44.544-41.4208 44.544-72.5504 0-46.4896-39.8848-84.3776-88.8832-84.3776-48.9472 0-88.9344 37.888-88.9344 84.3776 0 31.1296 17.8688 58.2144 44.3904 72.5504z m266.9056-409.9072c0-116.0704-99.7376-210.5856-222.3616-210.5856-122.6752 0-222.3616 94.5664-222.3616 210.5856v101.7344h444.7232V298.8544z" fill="" p-id="5706"></path></svg>