<?xml version="1.0" standalone="no"?><!DOCTYPE svg PUBLIC "-//W3C//DTD SVG 1.1//EN" "http://www.w3.org/Graphics/SVG/1.1/DTD/svg11.dtd"><svg t="1545734730040" class="icon" style="" viewBox="0 0 1024 1024" version="1.1" xmlns="http://www.w3.org/2000/svg" p-id="4326" xmlns:xlink="http://www.w3.org/1999/xlink" width="64" height="64"><defs><style type="text/css"></style></defs><path d="M935.6192 68.266667 88.3808 68.266667C49.0592 68.266667 17.066667 100.8064 17.066667 140.8l0 554.666667c0 39.994667 31.991467 72.533333 71.314133 72.533333L473.6 768l0 112.424533L298.666667 880.424533c-20.795733 0-37.6544 16.858667-37.6544 37.6544S277.8688 955.733333 298.666667 955.733333l426.666667 0c20.795733 0 37.6544-16.858667 37.6544-37.6544S746.129067 880.424533 725.333333 880.424533L550.4 880.424533 550.4 768l385.2192 0C974.941867 768 1006.933333 735.461333 1006.933333 695.466667L1006.933333 140.8C1006.933333 100.8064 974.941867 68.266667 935.6192 68.266667zM930.133333 691.2 93.866667 691.2 93.866667 145.066667l836.266667 0L930.133333 691.2z" p-id="4327"></path></svg>