<?xml version="1.0" standalone="no"?><!DOCTYPE svg PUBLIC "-//W3C//DTD SVG 1.1//EN" "http://www.w3.org/Graphics/SVG/1.1/DTD/svg11.dtd"><svg t="1514537819233" class="icon" style="" viewBox="0 0 1024 1024" version="1.1" xmlns="http://www.w3.org/2000/svg" p-id="2275" xmlns:xlink="http://www.w3.org/1999/xlink" width="32" height="32"><defs><style type="text/css"></style></defs><path d="M456.8556275 43.51219437c-4.7679675-0.00095906-9.59733281 1.94939813-12.96944625 5.32055251L63.44172219 428.61237687c-38.99851875 38.99851875-39.00043781 102.65711813 0 141.66906844l287.99386031 287.66096625c39.04073062 39.04073062 102.65136281 39.00331594 141.66906844 0l380.44445906-380.44445906c3.37115438-3.37211344 5.32151156-8.20147969 5.3205525-12.96944625L878.8696625 61.47025906c0.00095906-4.86390187-2.16237375-9.58390219-5.65344656-12.96944625-3.35772375-3.25123594-7.96356094-4.9895775-12.63751219-4.9886175L456.8556275 43.51219437zM901.48345062 66.79081156c2.27461781 111.17134594 0.34920281 222.35324438 0.99772313 333.55433063-3.1965525 28.30464938 6.76533281 58.69300594-5.65344656 85.46653406C773.99932437 613.05500469 646.90949094 736.55974812 522.03671469 861.933305c-14.73081281 19.85373937-35.61681188 34.14037313-58.86281063 41.90247l96.10859813 61.85598187c46.42388438 29.88661688 108.80367094 16.11899156 138.67589812-30.26268187l290.98703063-452.27671594c2.58065063-4.01008125 3.67143094-8.97471469 2.66027625-13.63523531L906.13917406 75.43742938C905.43597031 72.18715344 903.76670187 69.20549469 901.48345062 66.79081156zM694.3004 119.66728156c27.54004781 0.01247156 55.13861625 10.57587 76.15508719 31.5933 42.03390094 42.03390094 42.03390094 109.9443375 0 151.97823844-42.03390094 42.03390094-110.2762725 42.03294187-152.31113344 0-42.03390094-42.03390094-42.03390094-109.9443375 0-151.97823844C639.16274375 130.24315156 666.76035219 119.65481 694.3004 119.66728156zM450.20445781 346.47094906c24.95843812 0 51.18993281 12.79772344 73.16191594 31.260405l24.27634031-24.27634031c5.64673125-5.64673125 14.63967469-5.31479625 20.28640594 0.33289406 5.64673125 5.64673125 5.64673125 14.63871469 0 20.28640594l-23.94440531 23.94440531c10.54804875 12.2892675 19.01143031 25.65780375 24.27634031 38.57640563 4.81017844 12.12426 6.42476437 24.8557875 5.3205525 38.57640562-0.66387 10.62479625-2.38686188 20.24611313-5.65344656 28.93206375-3.27138187 8.69170687-7.323675 15.63835688-12.30461719 20.61834094-5.53256906 5.53256906-12.54157688 8.32331719-20.61834094 8.31372375-8.08539844 0-14.86128375-2.88956063-20.61834093-8.64661781-10.85024344-10.84928437-12.1789425-23.6393325-3.65800032-38.57640563 10.18157719-17.48702344 10.73512125-35.3875275 1.33061813-53.87419312-0.24655313-0.38373937-0.41443875-0.95647125-0.66482906-1.33061813l-69.17198157 68.8390875 0.66482907 1.33061813c9.95229281 17.48990156 17.57912156 31.99718625 22.61378812 43.23212906 5.04330094 11.23494281 7.75730063 22.96586906 8.31372375 35.25129937 0.77227594 12.94930031-1.22988656 25.40165813-5.98634156 37.57868157-4.76029219 12.17318625-12.20772281 23.51461687-22.28089313 33.58778718-12.6221625 12.6221625-27.29637281 21.1833975-44.22985218 26.2717875-16.93827562 5.09318719-34.72749469 5.53448719-53.20936407 0.99772313-19.49206406-5.54695875-38.16004781-16.08541406-54.20708718-29.59785281l-23.94440532 23.94440531c-5.64673125 5.64673125-14.97160969 5.64673125-20.61834093 0-5.64673125-5.64673125-5.64577219-14.63871469 0-20.28640594l24.27634031-23.94440531c-11.09295937-13.17666656-19.98804844-27.91419375-25.27406438-42.56729906-5.03946281-14.33556094-7.0905525-28.17130031-6.65117062-41.56957594 0.44034187-13.38868219 2.60367469-25.34505563 6.98406469-35.91612844 4.37463375-10.56627563 10.42812938-19.40764125 17.62516968-26.60468156 5.31287813-5.31287813 11.87195063-8.20147969 20.28640594-8.31372375 8.41253625-0.111285 15.74772281 3.11117063 21.94895906 9.31144688 4.98094312 4.98094312 8.208195 10.20076406 9.31144688 15.9626175 1.10804906 5.75705625 0.21585375 11.437365-2.66027625 16.96034062-6.08899125 12.06573937-10.37152781 21.56905594-12.96944625 28.60012875-2.59791844 7.02243844-3.82396781 14.8113975-3.32510531 23.27861719 0.49310531 8.47201594 2.66795156 17.42466562 7.98178875 26.93661656 0 0 0.26190281 0.20338219 0.33289406 0.33289406l77.48570437-77.81859937c-10.6526175-18.80325094-18.37921875-35.63503969-23.27861718-50.54812875-4.93201594-15.00039-6.09378844-30.05738156-2.99317032-45.56047032 3.09582094-15.4973325 11.99474719-30.61764094 26.60468157-45.22757531C404.056865 356.0375825 425.91180781 346.5246725 450.20445781 346.47094906zM458.85107469 399.34741812c-9.7450725-0.66387-19.0824225 3.45269906-28.26723469 12.63751219-8.74543031 8.74543031-13.02221063 17.91969-12.63751219 27.26951156 0.37894312 9.27786938 3.77024344 20.45621063 9.97627594 33.92068219l63.51853406-63.18564C482.87031031 403.10710906 468.49253844 400.00937 458.85107469 399.34741812zM398.99054 542.67903969l-72.82998094 73.16287594c0.35208094 0.27245531 0.63508969 0.73198406 0.99772313 0.99772312 13.39347937 8.960325 26.39938125 12.96848719 39.24123469 12.30461719 12.83226-0.66482906 23.62110469-5.33014594 32.59006406-14.30006438 9.62899125-9.62899125 14.29814625-20.07822656 13.63523531-31.260405-0.66866625-11.17642219-5.11237406-24.4135275-12.96944625-39.57412875L398.99054 542.67903969z" p-id="2276"></path></svg>