<?xml version="1.0" standalone="no"?><!DOCTYPE svg PUBLIC "-//W3C//DTD SVG 1.1//EN" "http://www.w3.org/Graphics/SVG/1.1/DTD/svg11.dtd"><svg t="1514537804377" class="icon" style="" viewBox="0 0 1024 1024" version="1.1" xmlns="http://www.w3.org/2000/svg" p-id="1901" xmlns:xlink="http://www.w3.org/1999/xlink" width="32" height="32"><defs><style type="text/css"></style></defs><path d="M800.203138 717.721634C757.145278 717.721634 722.241645 750.832098 722.241645 791.665755 722.241645 832.48344 757.145278 865.613562 800.203138 865.613562 843.251157 865.613562 878.16832 832.48344 878.16832 791.665755 878.16832 750.832098 843.251157 717.721634 800.203138 717.721634L800.203138 717.721634ZM800.203138 828.648872C778.671747 828.648872 761.209475 812.106542 761.209475 791.675584 761.209475 771.249539 778.671747 754.696152 800.203138 754.696152 821.709925 754.696152 839.185728 771.249539 839.185728 791.675584 839.185728 812.106542 821.724686 828.648872 800.203138 828.648872L800.203138 828.648872ZM952.958656 751.398498C949.455376 739.333309 944.357909 727.930355 937.967622 717.285469 945.247259 708.003138 970.31883 673.289307 952.247667 656.126515L942.978984 646.830669C927.516829 632.197635 888.038514 655.071118 878.452469 660.988221 867.141846 654.902795 854.932034 650.060749 842.054285 646.758179 840.002504 635.134072 831.00321 594.469965 805.565074 594.469965L795.387358 594.469965C773.525075 594.469965 761.007741 636.507685 758.221602 647.051824 745.535746 650.405995 733.532586 655.25787 722.351122 661.343296 713.53388 655.152208 675.708798 630.34977 657.248928 647.843064L647.446389 655.665778C631.36427 670.914357 658.098915 711.155813 662.981118 718.1922 656.787646 728.65525 651.832867 739.861622 648.426765 751.682312 637.754557 753.304109 592.226688 761.617048 592.226688 786.458803L592.226688 796.114638C592.226688 817.635395 639.974859 829.594922 648.696154 831.606195 652.16007 843.316307 657.152981 854.445277 663.351374 864.817406 658.209624 872.458282 632.516859 912.50807 648.459978 927.626414L657.748342 934.945389C678.717584 954.84312 722.539325 922.160221 722.539325 922.160221L720.510917 920.110859C732.143821 926.627536 744.709128 931.77797 758.014947 935.320122 760.176205 943.809984 772.784565 988.784139 795.397198 988.784139L805.579834 988.784139C835.25069 988.784139 842.596752 936.279686 842.596752 936.279686L839.877035 936.202282C853.351376 932.943944 866.069214 928.034322 877.890322 921.7474 887.144243 927.601842 925.964462 950.635048 941.479512 935.93444L951.791306 926.148368C972.471478 906.566397 938.80777 866.40603 937.866755 865.287973 944.261962 854.686088 949.384032 843.283134 952.915603 831.254806 964.485773 828.476864 1008.019675 816.616858 1007.999994 796.109725L1007.999994 786.453888C1007.999994 759.22244 956.202387 751.840805 952.958656 751.398498L952.958656 751.398498ZM800.203138 902.592994C735.599126 902.592994 683.244293 852.9488 683.244293 791.675584 683.244293 730.402368 735.613888 680.747117 800.203138 680.747117 864.782546 680.747117 917.152141 730.402368 917.152141 791.675584 917.152141 852.9488 864.796077 902.592994 800.203138 902.592994L800.203138 902.592994ZM147.83548 855.774658C137.153431 855.774658 128.466578 847.150875 128.466578 836.501074L128.466578 644.310741C128.432136 625.83331 113.897463 610.787456 95.68607 609.908982 77.398412 610.764112 62.829297 625.891056 62.858819 644.44589L62.858819 842.404661C62.858819 891.069634 102.466293 930.650083 151.170238 930.650083L602.855845 930.650083C603.331886 909.662554 621.576493 881.273733 626.111813 874.535902 622.499056 868.49348 619.240563 862.229902 616.386768 855.774658L147.83548 855.774658 147.83548 855.774658ZM116.443737 546.404566C141.920007 560.010462 171.970958 567.007534 205.715851 567.007534 262.281264 566.835525 314.670541 541.950768 350.376187 499.356477 385.914544 541.604293 437.894203 566.307213 494.353827 566.662288 550.360781 566.211379 602.20759 541.397883 637.572504 499.193069 673.278152 541.777531 725.733853 566.55171 782.573573 566.55171 816.976562 566.383387 847.508477 559.136902 873.229533 545.022354 934.171582 511.680907 971.976984 447.758755 971.948693 378.200859 972.049558 358.230638 968.772616 338.179328 962.775955 319.908309L962.501646 318.506438C962.093259 316.486563 961.53111 314.557608 960.742627 312.699912L879.947021 117.274585C865.954816 75.510852 825.760592 32.100748 778.748013 32L211.641166 32C164.008624 32 126.995398 75.165605 113.580102 115.26454L26.720182 314.79719C26.311794 316.006166 25.860353 317.796286 25.475337 319.625723 19.176077 339.019714 16 358.942018 16 378.930667 16.072575 449.207315 54.569283 513.365365 116.443737 546.404566L116.443737 546.404566ZM242.657734 256.666821 748.058648 256.666821C767.278709 256.666821 780.756739 270.652365 780.756739 289.710938 780.756739 308.769512 767.278709 331.552075 748.058648 331.552075L242.657734 331.552075C223.465963 331.552075 204.578024 312.800661 204.578024 293.742086 204.578024 274.688427 223.465963 256.666821 242.657734 256.666821L242.657734 256.666821ZM873.537054 595.285877C874.089362 595.22775 874.646589 595.208374 875.203818 595.208374L871.864139 595.208374C872.426288 595.208374 872.984746 595.22775 873.537054 595.285877L873.537054 595.285877ZM93.994705 609.861066C94.566694 609.861066 95.123922 609.880442 95.68607 609.936146 96.215006 609.880442 96.734102 609.861066 97.266728 609.861066L93.994705 609.861066 93.994705 609.861066Z" p-id="1902"></path></svg>