<?xml version="1.0" standalone="no"?><!DOCTYPE svg PUBLIC "-//W3C//DTD SVG 1.1//EN" "http://www.w3.org/Graphics/SVG/1.1/DTD/svg11.dtd"><svg t="1533695706418" class="icon" style="" viewBox="0 0 1024 1024" version="1.1" xmlns="http://www.w3.org/2000/svg" p-id="8348" xmlns:xlink="http://www.w3.org/1999/xlink" width="32" height="32"><defs><style type="text/css"></style></defs><path d="M494.043838 676.149245c76.612957-44.890404 128.087287-128.087287 128.087287-223.3547 0-142.851242-115.817243-258.768242-258.768242-258.768242S104.694398 309.843546 104.694398 452.794545c0 95.267414 51.47433 178.464296 128.087287 223.3547C98.409742 719.842572 1.246956 846.134243 1.246956 995.070628l0 28.929372 724.431369 0 0-28.929372C725.678324 846.134243 628.515538 719.842572 494.043838 676.149245z" p-id="8349"></path><path d="M791.118558 545.967073c76.612957-44.890404 128.087287-128.087287 128.087287-223.3547 0-142.851242-115.817243-258.768242-258.768242-258.768242-75.615392 0-143.74905 32.520604-191.033609 84.194447 6.583926 2.294398 13.068095 4.78831 19.552265 7.481734 38.406235 16.260302 72.921968 39.503556 102.549635 69.131223 29.627667 29.627667 52.870921 64.1434 69.131223 102.549635 16.858841 39.802825 25.338139 82.099562 25.338139 125.593376 0 57.260205-15.262737 113.622601-44.092353 162.802533-9.476863 16.260302-20.350317 31.523039-32.520604 45.788212 5.087579 3.291963 10.075402 6.783439 14.963468 10.374671 33.418412 24.240818 62.74681 53.269946 87.187141 86.488846 24.839357 33.617925 44.092353 70.627569 57.260205 110.031369 2.793181 8.479299 5.386849 16.958597 7.581491 25.537652L1022.753044 893.817828l0-28.929372C1022.753044 715.852314 925.590258 589.660399 791.118558 545.967073z" p-id="8350"></path></svg>