<?xml version="1.0" standalone="no"?><!DOCTYPE svg PUBLIC "-//W3C//DTD SVG 1.1//EN" "http://www.w3.org/Graphics/SVG/1.1/DTD/svg11.dtd"><svg t="1515725832514" class="icon" style="" viewBox="0 0 1024 1024" version="1.1" xmlns="http://www.w3.org/2000/svg" p-id="4348" xmlns:xlink="http://www.w3.org/1999/xlink" width="128" height="128"><defs><style type="text/css"></style></defs><path d="M799.168372 368.622522C781.27791 562.007951 670.413939 720.270441 511.500627 720.270441c-158.915359 0-268.211625-158.39245-287.667745-351.647919C195.890482 90.484827 352.585267 1.038656 511.500627 1.038656 670.413939 1.038656 827.112818 66.589604 799.168372 368.622522L799.168372 368.622522zM843.301522 429.731298c-10.444886 43.35339-38.650275 72.601528-63.069431 65.288982-24.287149-7.18054-35.647895-48.181349-25.199938-91.534739 10.447956-43.35032 38.782282-72.601528 63.069431-65.288982C842.521762 345.379145 853.749478 386.377908 843.301522 429.731298L843.301522 429.731298zM242.769163 511.084141c-24.420179 7.18054-52.624545-22.070668-63.072501-65.288982-10.444886-43.35339 0.782829-84.355223 25.203008-91.667769 24.287149-7.182586 52.622498 22.065552 63.069431 65.288982C278.417057 462.769762 267.056312 503.771595 242.769163 511.084141L242.769163 511.084141zM0.021489 1024l0-63.85533c51.969629-147.945517 367.579773-175.887916 367.579773-175.887916 68.033489-31.992645 0-111.907743 0-111.907743l143.900388 0 0 351.650989L0.021489 1024 0.021489 1024zM0.021489 1024l0-63.85533c51.969629-147.945517 367.579773-175.887916 367.579773-175.887916 68.033489-31.992645 0-111.907743 0-111.907743l143.900388 0 0 351.650989L0.021489 1024 0.021489 1024zM511.500627 1024 511.500627 672.349011 655.401014 672.349011c0-0.00307-68.033489 79.914074 0 111.907743 0 0 315.610144 27.942399 367.579773 175.887916l0 63.85533L511.500627 1024 511.500627 1024zM511.500627 1024 511.500627 672.349011 655.401014 672.349011c0-0.00307-68.033489 79.914074 0 111.907743 0 0 315.610144 27.942399 367.579773 175.887916l0 63.85533L511.500627 1024 511.500627 1024z" p-id="4349"></path></svg>